<svg width="22" height="22" viewBox="0 0 22 22" fill="none" xmlns="http://www.w3.org/2000/svg">
<path d="M18.5109 7.9836C18.4583 7.85847 18.3699 7.75171 18.2567 7.67678C18.1435 7.60184 18.0107 7.56208 17.875 7.5625H4.12498C3.98925 7.56208 3.85643 7.60184 3.74326 7.67678C3.6301 7.75171 3.54164 7.85847 3.48904 7.9836C3.43951 8.11059 3.42695 8.249 3.4528 8.38283C3.47866 8.51667 3.54187 8.64044 3.63514 8.73985L10.5101 15.6148C10.6415 15.7419 10.8172 15.8129 11 15.8129C11.1828 15.8129 11.3584 15.7419 11.4898 15.6148L18.3648 8.73985C18.4581 8.64044 18.5213 8.51667 18.5472 8.38283C18.573 8.249 18.5605 8.11059 18.5109 7.9836Z" fill="#E5E7EB"/>
</svg>
