<svg width="542" height="542" viewBox="0 0 542 542" fill="none" xmlns="http://www.w3.org/2000/svg">
<path d="M454.089 262.429C454.089 360.703 373.61 440.371 274.333 440.371C175.057 440.371 94.5779 360.703 94.5779 262.429C94.5779 164.154 175.057 84.4869 274.333 84.4869C373.61 84.4869 454.089 164.154 454.089 262.429Z" fill="#EDB0FC"/>
<path d="M335.307 156.056C336.372 160.073 338.805 164.978 340.955 170.198C331.373 172.85 321.668 175.83 311.966 178.809C319.13 169.662 326.993 161.997 335.307 156.056Z" fill="#E5E7EB"/>
<path d="M342.14 133.22C350.633 130.997 359.482 131.547 370.585 132.819C385.393 134.515 394.436 150.408 387.501 163.498C387.285 163.906 387.058 164.307 386.82 164.703C381.095 174.169 370.329 179.781 359.383 181.758C350.713 183.324 341.404 182.802 333.619 178.704C325.836 174.608 319.899 166.521 319.904 157.779C319.913 145.938 330.601 136.24 342.14 133.22Z" fill="#E5E7EB"/>
<path d="M366.998 153.234C366.998 146.826 361.802 141.631 355.395 141.631C348.987 141.631 343.77 146.867 343.793 153.275C343.804 156.457 345.096 159.336 347.18 161.426C348.803 163.053 349.99 165.062 350.588 167.28L351.525 170.739H359.13L360.017 167.462C360.628 165.197 361.856 163.152 363.529 161.507C365.669 159.402 366.998 156.473 366.998 153.234Z" fill="#EFDD62"/>
<path d="M357.153 174.791H353.445C352.394 174.791 351.495 174.015 351.436 173.03L351.123 169.231L359.522 169.178L359.163 173.03C359.102 174.015 358.203 174.791 357.153 174.791Z" fill="#737375"/>
<path d="M358.765 170.834C356.419 170.934 354.065 170.815 351.719 170.919C351.512 170.928 351.526 171.232 351.731 171.239C354.079 171.316 356.433 171.171 358.78 171.246C359.044 171.255 359.032 170.822 358.765 170.834Z" fill="#98989A"/>
<path d="M358.765 171.853C356.419 171.954 354.065 171.834 351.719 171.938C351.512 171.947 351.526 172.251 351.731 172.258C354.079 172.335 356.433 172.19 358.78 172.265C359.044 172.274 359.032 171.842 358.765 171.853Z" fill="#98989A"/>
<path d="M360.404 159.141C360.031 158.868 359.741 158.512 359.529 158.11C359.951 157.591 360.135 156.891 360.213 156.242C360.26 155.846 360.273 155.447 360.279 155.048C360.286 154.663 360.235 154.337 359.909 154.097C359.618 153.884 359.23 154.076 359.007 154.284C358.75 154.523 358.625 154.913 358.526 155.24C358.325 155.899 358.328 156.604 358.455 157.276C358.498 157.511 358.563 157.74 358.648 157.964C358.484 158.092 358.297 158.196 358.092 158.261C357.458 158.465 356.975 158.098 356.683 157.557C356.635 157.468 356.588 157.374 356.546 157.276C356.596 157.143 356.644 157.009 356.688 156.878C356.903 156.235 357.022 155.563 357.076 154.888C357.121 154.33 357.137 153.662 356.599 153.332C356.427 153.226 356.233 153.306 356.123 153.456C355.339 154.546 355.383 155.991 355.809 157.228C355.671 157.556 355.511 157.874 355.332 158.182C355.135 158.521 354.759 159.046 354.303 158.979C353.877 158.918 353.539 158.384 353.327 158.055C353.173 157.813 353.051 157.554 352.955 157.286C353.009 157.144 353.059 157 353.106 156.855C353.287 156.285 353.388 155.689 353.435 155.093C353.475 154.596 353.491 153.898 352.947 153.659C352.788 153.59 352.554 153.597 352.47 153.784C351.993 154.847 351.901 156.013 352.203 157.14C352.212 157.179 352.225 157.216 352.235 157.254C351.907 158.094 351.404 158.872 350.794 159.533C350.52 159.83 350.954 160.27 351.238 159.98C351.782 159.424 352.234 158.794 352.587 158.11C352.691 158.307 352.811 158.497 352.94 158.676C353.295 159.168 353.741 159.629 354.38 159.663C354.978 159.695 355.463 159.193 355.786 158.756C355.941 158.547 356.077 158.318 356.199 158.081C356.491 158.547 356.914 158.918 357.488 158.998C358.016 159.073 358.529 158.907 358.962 158.616C359.217 159.049 359.546 159.438 359.927 159.758C360.363 160.123 360.862 159.477 360.404 159.141ZM356.407 154.303C356.431 154.581 356.367 154.924 356.352 155.092C356.324 155.4 356.27 155.705 356.199 156.005C356.126 155.413 356.174 154.806 356.407 154.303ZM359.117 156.05C359.14 155.761 359.216 155.477 359.312 155.205C359.356 155.081 359.411 154.966 359.481 154.856C359.486 154.847 359.51 154.817 359.536 154.789C359.539 154.808 359.547 154.834 359.549 154.873C359.587 155.578 359.528 156.337 359.309 157.008C359.281 157.091 359.249 157.172 359.212 157.25C359.12 156.857 359.088 156.447 359.117 156.05Z" fill="#FFFEFF"/>
<path d="M361.063 157.435C359.829 161.201 358.531 164.947 357.136 168.655C356.969 169.1 357.653 169.372 357.819 168.928C359.209 165.214 360.499 161.465 361.658 157.672C361.777 157.281 361.192 157.04 361.063 157.435Z" fill="#FFFEFF"/>
<path d="M349.843 157.196C350.827 161.035 351.747 164.893 352.566 168.769C352.664 169.234 353.386 169.094 353.288 168.63C352.463 164.752 351.536 160.897 350.472 157.076C350.362 156.681 349.74 156.794 349.843 157.196Z" fill="#FFFEFF"/>
<path d="M338.898 151.016C339.641 151.111 342.355 151.055 342.418 150.569C342.48 150.082 339.863 149.349 339.122 149.255C338.379 149.161 337.729 149.48 337.666 149.966C337.605 150.453 338.157 150.922 338.898 151.016Z" fill="#EFDD62"/>
<path d="M344.517 140.051C345.105 140.511 346.978 142.482 346.674 142.868C346.372 143.254 344.011 141.91 343.422 141.449C342.833 140.988 342.601 140.301 342.904 139.915C343.206 139.529 343.928 139.59 344.517 140.051Z" fill="#EFDD62"/>
<path d="M356.341 136.815C356.341 137.563 355.943 140.25 355.453 140.25C354.963 140.25 354.563 137.563 354.563 136.815C354.563 136.068 354.963 135.461 355.453 135.461C355.943 135.461 356.341 136.068 356.341 136.815Z" fill="#EFDD62"/>
<path d="M367.406 140.944C366.84 141.431 365.06 143.484 365.38 143.857C365.698 144.228 367.996 142.778 368.563 142.29C369.13 141.803 369.331 141.106 369.011 140.735C368.692 140.363 367.972 140.456 367.406 140.944Z" fill="#EFDD62"/>
<path d="M371.718 152.939C370.975 153.034 368.26 152.978 368.198 152.492C368.135 152.006 370.751 151.271 371.493 151.178C372.235 151.084 372.887 151.402 372.949 151.889C373.01 152.376 372.46 152.845 371.718 152.939Z" fill="#EFDD62"/>
<path d="M326.706 190.79C325.369 200.809 321.966 208.333 314.699 213.053C300.293 206.99 292.553 197.098 286.687 181.143C285.109 201.944 261.995 217.334 238.056 215.428C238.041 215.428 238.024 215.42 238 215.428C237.96 215.428 237.912 215.42 237.864 215.42C237.552 215.391 237.24 215.362 236.935 215.316C232.302 214.679 228.388 212.192 225.947 208.749C224.114 206.174 223.106 203.072 223.234 199.792C224.594 163.66 262.452 132.774 294.29 160.736L299.86 158.36C303.542 156.788 307.944 157.575 310.648 160.38C312.082 161.864 313.434 163.371 314.699 164.913C320.997 172.55 325.274 180.958 326.706 190.79Z" fill="#FA9136"/>
<path d="M232.698 232.514C222.811 250.085 218.092 269.638 218.542 291.171L317.304 288.759C329.389 267.188 328.569 238.775 317.388 224.462L232.698 232.514Z" fill="#FA9136"/>
<path d="M219.658 293.239C219.214 293.239 218.788 293.069 218.466 292.761C218.134 292.445 217.942 292.009 217.933 291.55C217.479 269.805 222.315 249.773 232.31 232.011C232.587 231.519 233.088 231.192 233.651 231.139L318.341 223.087C318.924 223.035 319.501 223.279 319.863 223.742C325.602 231.087 328.815 241.91 328.914 254.217C329.013 266.736 325.822 279.425 319.926 289.946C319.628 290.477 319.073 290.812 318.464 290.827L219.701 293.239H219.658ZM234.88 234.489C225.751 251.038 221.205 269.616 221.358 289.747L317.388 287.402C328.006 267.691 328.136 240.891 317.707 226.615L234.88 234.489Z" fill="#0A0A0A"/>
<path d="M335.83 329.009H208.308C210.053 315.155 213.223 303.197 218.113 293.473C221.257 287.238 226.988 282.708 233.751 281.003L261.715 274.001L262.476 273.808C264.429 273.32 265.838 271.607 265.926 269.59L266.134 265.324C266.134 265.324 276.715 250.078 286.759 263.035V268.037C286.759 269.863 287.792 271.534 289.441 272.351L294.699 274.952L299.293 277.225L304.183 279.65L305.001 280.05L314.604 284.805L319.623 287.286L322.192 288.559C326.025 290.456 328.922 293.817 330.235 297.882C332.788 305.846 334.46 314.587 335.398 323.959C335.566 325.624 335.71 327.304 335.83 329.009Z" fill="#FDC8A2"/>
<path d="M335.829 329.334H208.307C208.214 329.334 208.125 329.292 208.063 329.223C208.001 329.153 207.973 329.06 207.984 328.968C209.778 314.732 213.086 302.741 217.821 293.327C220.996 287.033 226.773 282.425 233.671 280.688L262.396 273.492C264.202 273.04 265.519 271.429 265.601 269.575L265.809 265.308C265.812 265.247 265.831 265.189 265.866 265.139C266.079 264.834 271.126 257.666 277.686 257.493C281.056 257.397 284.198 259.201 287.015 262.835C287.059 262.893 287.082 262.963 287.082 263.035V268.037C287.082 269.754 288.043 271.296 289.585 272.06L322.335 288.268C326.219 290.189 329.212 293.657 330.544 297.782C333.016 305.492 334.758 314.287 335.72 323.924C335.888 325.59 336.033 327.295 336.153 328.985C336.159 329.075 336.128 329.164 336.067 329.23C336.005 329.295 335.919 329.334 335.829 329.334ZM208.674 328.683H335.479C335.366 327.113 335.229 325.537 335.073 323.991C334.115 314.397 332.382 305.646 329.924 297.981C328.647 294.021 325.774 290.693 322.045 288.848L289.296 272.642C287.53 271.767 286.433 270.004 286.433 268.037V263.146C283.768 259.744 280.844 258.061 277.706 258.142C271.817 258.295 267.006 264.673 266.453 265.435L266.249 269.605C266.156 271.744 264.636 273.603 262.553 274.123L261.795 274.315L233.828 281.319C227.114 283.011 221.49 287.494 218.4 293.619C213.741 302.886 210.468 314.681 208.674 328.683Z" fill="#60118C"/>
<path d="M314.604 284.801V329.011H232.218L233.753 281.004L245.7 278.013C264.128 308.169 283.613 315.328 305.04 280.07L314.604 284.801Z" fill="#FF7CC6"/>
<path d="M245.701 278.018C246.374 279.115 247.045 280.187 247.717 281.219L237.898 283.676L236.45 329.009H232.215L233.753 281.003L245.701 278.018Z" fill="#FFFEFF"/>
<path d="M314.604 284.804V285.42L309.177 282.74C294.218 307.351 280.205 311.295 266.838 301.163C278.955 307.598 291.617 302.156 305.04 280.067L314.604 284.804Z" fill="#FFFEFF"/>
<path d="M314.603 330.736H232.218C231.75 330.736 231.303 330.546 230.978 330.21C230.653 329.875 230.477 329.422 230.493 328.955L232.027 280.949C232.052 280.178 232.584 279.519 233.332 279.332L245.28 276.34C246.014 276.158 246.779 276.471 247.171 277.115C257.249 293.606 267.054 301.968 276.311 301.968H276.331C285.218 301.956 294.38 294.288 303.564 279.173C304.029 278.408 305.001 278.126 305.804 278.523L315.368 283.255C315.956 283.545 316.327 284.145 316.327 284.801V329.011C316.327 329.964 315.556 330.736 314.603 330.736ZM233.999 327.285H312.878V285.874L305.682 282.315C295.974 297.845 286.366 305.405 276.335 305.418H276.31C265.839 305.419 255.555 297.101 244.894 279.995L235.435 282.362L233.999 327.285Z" fill="#070607"/>
<path d="M335.83 330.737H208.308C207.812 330.737 207.341 330.523 207.014 330.153C206.685 329.781 206.533 329.287 206.595 328.796C208.403 314.411 211.76 302.266 216.572 292.699C219.927 286.035 226.036 281.164 233.331 279.332L262.054 272.137C263.26 271.832 264.146 270.754 264.203 269.514L264.41 265.241C264.426 264.918 264.532 264.607 264.716 264.341C264.945 264.011 270.392 256.285 277.655 256.094C281.49 255.997 285.02 257.972 288.124 261.977C288.359 262.279 288.486 262.651 288.486 263.034V268.037C288.486 269.218 289.144 270.277 290.204 270.802L322.956 287.011C327.177 289.101 330.428 292.872 331.876 297.355C334.807 306.483 336.716 317.092 337.551 328.889C337.585 329.367 337.419 329.837 337.092 330.187C336.766 330.538 336.309 330.737 335.83 330.737ZM210.275 327.286H333.967C333.09 316.504 331.283 306.798 328.591 298.412C327.429 294.813 324.816 291.783 321.424 290.102L288.671 273.894C286.427 272.782 285.034 270.538 285.034 268.037V263.637C282.797 260.918 280.408 259.541 277.922 259.541C277.866 259.541 277.811 259.542 277.754 259.543C273.018 259.661 268.92 264.526 267.832 265.933L267.65 269.676C267.522 272.464 265.61 274.8 262.895 275.484L234.171 282.68C227.849 284.266 222.559 288.484 219.655 294.25C215.237 303.035 212.083 314.142 210.275 327.286Z" fill="black"/>
<path d="M294.802 241.348C294.802 242.36 292.975 243.18 290.72 243.18C288.466 243.18 286.64 242.36 286.64 241.348C286.64 240.337 288.466 239.516 290.72 239.516C292.975 239.516 294.802 240.337 294.802 241.348Z" fill="#F97DE8"/>
<path d="M263.838 241.348C263.838 242.36 262.01 243.18 259.757 243.18C257.503 243.18 255.675 242.36 255.675 241.348C255.675 240.337 257.503 239.516 259.757 239.516C262.01 239.516 263.838 240.337 263.838 241.348Z" fill="#F97DE8"/>
<path d="M346.963 425.62H195.037C186.859 425.62 180.23 418.992 180.23 410.814H361.77C361.77 418.992 355.141 425.62 346.963 425.62Z" fill="#C8D1DC"/>
<path d="M346.964 425.908H195.037C186.714 425.908 179.942 419.136 179.942 410.813V410.526H362.058V410.813C362.058 419.136 355.286 425.908 346.964 425.908ZM180.52 411.102C180.674 418.975 187.127 425.332 195.037 425.332H346.964C354.873 425.332 361.325 418.975 361.479 411.102H180.52Z" fill="#60118C"/>
<path d="M361.27 414.634C361.594 413.415 361.77 412.135 361.77 410.814H180.229C180.229 412.135 180.405 413.415 180.73 414.634H361.27Z" fill="#FFFEFF"/>
<path d="M346.963 427.346H195.037C185.92 427.346 178.504 419.93 178.504 410.814C178.504 409.861 179.276 409.088 180.23 409.088H361.77C362.723 409.088 363.496 409.861 363.496 410.814C363.496 419.93 356.079 427.346 346.963 427.346ZM182.069 412.539C182.916 418.939 188.408 423.896 195.037 423.896H346.963C353.591 423.896 359.085 418.939 359.931 412.539H182.069Z" fill="#60118C"/>
<path d="M202.618 425.621H339.8C344.424 425.621 348.316 422.417 348.861 418.165L359.911 337.45C360.555 332.424 356.315 328.004 350.851 328.004H191.568C186.103 328.004 181.864 332.424 182.508 337.45L193.558 418.165C194.102 422.417 197.995 425.621 202.618 425.621Z" fill="#D4DCE9"/>
<path d="M339.799 425.909H202.617C197.852 425.909 193.834 422.594 193.272 418.2L182.221 337.488C181.917 335.108 182.646 332.779 184.277 330.928C186.073 328.887 188.73 327.716 191.567 327.716H350.85C353.687 327.716 356.345 328.887 358.141 330.928C359.771 332.779 360.502 335.108 360.197 337.485L349.147 418.204C348.584 422.595 344.566 425.909 339.799 425.909ZM191.567 328.292C188.896 328.292 186.395 329.391 184.709 331.307C183.189 333.033 182.509 335.202 182.792 337.412L193.842 418.125C194.368 422.234 198.14 425.332 202.617 425.332H339.799C344.276 425.332 348.05 422.234 348.576 418.127L359.627 337.41C359.91 335.202 359.228 333.033 357.708 331.307C356.021 329.391 353.522 328.292 350.85 328.292H191.567Z" fill="#60118C"/>
<path d="M182.506 337.451L192.594 410.616V410.621L193.559 418.166C194.104 422.417 197.995 425.621 202.619 425.621H339.8C344.426 425.621 348.315 422.417 348.862 418.166L359.914 337.451C360.558 332.423 356.318 328.006 350.855 328.006H191.566C186.101 328.006 181.862 332.423 182.506 337.451Z" fill="#FFFEFF"/>
<path d="M208.347 425.621H334.07C338.295 425.621 341.85 422.633 342.348 418.668L352.444 343.772C353.032 339.085 349.159 334.964 344.167 334.964H198.252C193.26 334.964 189.387 339.085 189.974 343.772L200.07 418.668C200.567 422.633 204.124 425.621 208.347 425.621Z" fill="#C8D1DC"/>
<path d="M339.799 427.346H202.618C197.132 427.346 192.499 423.494 191.845 418.384L180.797 337.684C180.438 334.876 181.293 332.145 183.198 329.978C185.268 327.628 188.318 326.279 191.568 326.279H350.85C354.099 326.279 357.151 327.628 359.22 329.978C361.127 332.145 361.981 334.876 361.623 337.669L350.571 418.399C349.918 423.494 345.288 427.346 339.799 427.346ZM191.568 329.73C189.31 329.73 187.204 330.652 185.789 332.258C184.547 333.67 183.989 335.436 184.219 337.231L195.267 417.931C195.703 421.338 198.863 423.895 202.618 423.895H339.799C343.555 423.895 346.714 421.338 347.149 417.946L358.202 337.215C358.43 335.436 357.871 333.67 356.628 332.258C355.215 330.652 353.109 329.73 350.85 329.73H191.568Z" fill="#60118C"/>
<path d="M281.301 382.377C280.012 386.403 275.986 389.34 271.216 389.34C265.406 389.34 260.699 384.977 260.699 379.599C260.699 374.222 265.406 369.867 271.216 369.867C271.705 369.867 272.184 369.899 272.655 369.964C271.744 371.236 271.216 372.765 271.216 374.397C271.216 378.863 275.121 382.481 279.939 382.481C280.404 382.481 280.861 382.448 281.301 382.377Z" fill="#60118C"/>
<path d="M271.217 374.397C271.217 373.013 271.601 371.7 272.281 370.556H272.354C272.842 370.556 273.321 370.587 273.794 370.652C272.881 371.925 272.354 373.453 272.354 375.086C272.354 377.703 273.688 380.023 275.77 381.496C273.056 380.128 271.217 377.463 271.217 374.397Z" fill="#FFFEFF"/>
<path d="M282.437 383.065C281.149 387.091 277.123 390.029 272.353 390.029C269.992 390.029 267.815 389.309 266.062 388.091C267.582 388.884 269.344 389.34 271.216 389.34C275.667 389.34 279.468 386.779 281.005 383.17H281.077C281.541 383.17 281.997 383.137 282.437 383.065Z" fill="#FFFEFF"/>
<path d="M317.216 212.195C316.959 212.404 316.697 212.609 316.428 212.812V226.863C319.25 226.334 320.744 224.532 321.522 222.981C322.983 220.065 322.804 216.152 321.108 213.879C320.144 212.589 318.84 212.025 317.216 212.195Z" fill="#FDC8A2"/>
<path d="M323.872 211.814C322.034 209.352 319.303 208.301 316.184 208.859C315.885 208.912 315.604 209.044 315.372 209.24C314.843 209.687 314.3 210.107 313.708 210.524C313.25 210.847 312.977 211.373 312.977 211.934V228.741C312.977 229.694 313.75 230.467 314.704 230.467C319.105 230.467 322.712 228.302 324.605 224.528C326.645 220.461 326.335 215.113 323.872 211.814ZM321.521 222.981C320.743 224.532 319.248 226.334 316.427 226.863V212.812C316.696 212.609 316.957 212.404 317.214 212.195C318.838 212.025 320.143 212.589 321.107 213.879C322.804 216.152 322.983 220.065 321.521 222.981Z" fill="#0E0D0F"/>
<path d="M235.28 218.076C235.562 218.25 235.848 218.419 236.14 218.586L237.942 232.521C235.076 232.358 233.364 230.763 232.394 229.325C230.57 226.62 230.243 222.716 231.634 220.244C232.426 218.842 233.648 218.115 235.28 218.076Z" fill="#FDC8A2"/>
<path d="M229.534 231.254C231.895 234.754 235.751 236.439 240.117 235.874C241.062 235.753 241.729 234.887 241.606 233.941L239.449 217.273C239.377 216.715 239.04 216.229 238.544 215.967C237.903 215.63 237.309 215.285 236.728 214.908C236.472 214.744 236.179 214.648 235.875 214.634C232.71 214.481 230.136 215.873 228.629 218.551C226.609 222.14 226.988 227.482 229.534 231.254ZM231.636 220.244C232.426 218.841 233.647 218.114 235.28 218.076C235.562 218.25 235.848 218.42 236.14 218.585L237.942 232.52C235.077 232.358 233.365 230.763 232.394 229.323C230.57 226.62 230.244 222.716 231.636 220.244Z" fill="#050505"/>
<path d="M298.09 200.403C294.872 196.514 292.199 191.975 289.861 186.669C288.725 184.116 287.676 181.379 286.684 178.458C285.106 200.891 261.993 217.492 238.054 215.434C238.038 215.434 238.021 215.427 237.997 215.434L241.601 239.421L244.265 248.121C246.442 255.26 251.349 261.304 258.007 264.68C264.627 268.05 272.045 269.859 280.68 269.299C292.951 267.97 304.22 262.248 311.056 248.625C313.506 243.759 314.697 238.349 314.697 232.898V212.873C307.815 209.744 302.451 205.678 298.09 200.403Z" fill="#FDC8A2"/>
<path d="M298.09 200.403C294.872 196.514 292.199 191.975 289.861 186.669C288.725 184.116 287.676 181.379 286.684 178.458C285.106 200.891 261.993 217.492 238.054 215.434C238.038 215.434 238.021 215.427 237.997 215.434L241.601 239.421L244.265 248.121C246.442 255.26 251.349 261.304 258.007 264.68C264.627 268.05 272.045 269.859 280.68 269.299C292.951 267.97 304.22 262.248 311.056 248.625C313.506 243.759 314.697 238.349 314.697 232.898V212.873C307.815 209.744 302.451 205.678 298.09 200.403Z" stroke="#0C0B0C" stroke-width="2.168" stroke-miterlimit="10"/>
<path d="M417.775 440.892H125.72C121.504 440.892 118.085 437.473 118.085 433.255C118.085 429.039 121.504 425.621 125.72 425.621H417.775C421.992 425.621 425.41 429.039 425.41 433.255C425.41 437.473 421.992 440.892 417.775 440.892Z" fill="#FCB55E"/>
<path d="M422.918 427.625C422.739 431.682 419.403 434.92 415.301 434.92H123.245C121.262 434.92 119.46 434.157 118.103 432.917C118.097 433.03 118.085 433.141 118.085 433.255C118.085 437.473 121.503 440.891 125.721 440.891H417.775C421.991 440.891 425.41 437.473 425.41 433.255C425.41 431.024 424.446 429.021 422.918 427.625Z" fill="#60118C"/>
<path d="M425.224 431.575C423.911 430.518 422.246 429.886 420.438 429.886H128.386C126.281 429.886 124.367 430.744 122.983 432.12C121.606 433.505 120.75 435.417 120.75 437.522C120.75 438.106 120.814 438.668 120.934 439.212C119.197 437.811 118.084 435.665 118.084 433.256C118.084 431.144 118.941 429.239 120.317 427.854C121.702 426.477 123.606 425.621 125.72 425.621H417.772C421.414 425.621 424.464 428.165 425.224 431.575Z" fill="#FFFEFF"/>
<path d="M417.774 442.616H125.719C120.558 442.616 116.359 438.417 116.359 433.255C116.359 428.094 120.558 423.895 125.719 423.895H417.774C422.936 423.895 427.134 428.094 427.134 433.255C427.134 438.417 422.936 442.616 417.774 442.616ZM125.719 427.346C122.462 427.346 119.809 429.998 119.809 433.255C119.809 436.514 122.462 439.165 125.719 439.165H417.774C421.032 439.165 423.682 436.514 423.682 433.255C423.682 429.998 421.032 427.346 417.774 427.346H125.719Z" fill="#60118C"/>
<path d="M449.786 441.241C460.019 442.413 465.672 443.703 465.672 445.051C465.672 450.531 398.437 454.971 283.837 454.971C169.231 454.971 76.3276 450.531 76.3276 445.051C76.3276 443.703 81.9807 442.413 92.2147 441.241H449.786Z" fill="#60118C"/>
<path d="M95.1372 440.529C102.465 439.425 109.793 439.163 117.121 439.028C124.447 438.876 131.775 438.955 139.103 439.038C146.431 439.103 153.759 439.12 161.086 439.109H183.069H271H358.933H402.898L413.89 439.107L419.385 439.056L424.881 438.967C432.209 438.942 439.536 439.005 446.864 440.529C447.255 440.61 447.507 440.994 447.425 441.386C447.366 441.678 447.137 441.892 446.864 441.95C439.536 443.473 432.209 443.535 424.881 443.511L419.385 443.422L413.89 443.371L402.898 443.368H358.933H271H183.069H161.086C153.759 443.358 146.431 443.373 139.103 443.438C131.775 443.522 124.447 443.602 117.121 443.449C109.793 443.314 102.465 443.051 95.1372 441.95C94.7459 441.89 94.4749 441.525 94.5345 441.133C94.5822 440.814 94.8348 440.574 95.1372 440.529Z" fill="#60118C"/>
<path d="M148.044 312.242L148.36 313.84L160.972 378.002C160.867 371.981 164.288 366.551 167.307 361.337C168.84 358.699 170.326 355.858 171.23 352.937C172.118 350.097 172.455 347.183 171.769 344.295C170.962 340.881 168.808 337.967 167.517 334.709C162.659 322.458 170.679 308.295 167.202 295.579C165.789 290.422 162.456 285.821 157.994 282.868C156.88 282.135 155.509 281.48 154.258 281.932C152.031 282.739 152.248 285.903 152.651 288.236C154.064 296.441 152.394 305.148 148.044 312.242Z" fill="#00D770"/>
<path d="M148.358 312.49L160.971 376.651C160.867 370.631 164.288 365.201 167.306 359.987C168.84 357.349 170.324 354.508 171.228 351.587C170.897 350.868 170.534 350.159 170.147 349.464C167.169 344.187 162.73 339.773 160.31 334.213C158.566 330.211 157.961 325.724 158.583 321.398C158.889 319.276 159.487 317.177 159.405 315.04C159.317 312.901 158.381 310.617 156.444 309.689C154.055 308.551 151.206 309.892 149.23 311.651C148.923 311.925 148.633 312.198 148.358 312.49Z" fill="#60118C"/>
<path d="M148.044 312.241L148.601 315.065H152.66L152.531 314.395C156.88 307.294 158.55 298.595 157.13 290.38C156.727 288.048 156.517 284.893 158.744 284.085C158.987 283.997 159.221 283.948 159.463 283.941C158.987 283.553 158.494 283.198 157.994 282.867C156.88 282.134 155.509 281.479 154.258 281.931C152.031 282.738 152.248 285.902 152.651 288.234C154.064 296.44 152.394 305.147 148.044 312.241Z" fill="#FFFEFF"/>
<path d="M160.968 379.831C159.971 379.831 159.156 379.034 159.139 378.034C159.036 371.885 162.142 366.564 165.145 361.42L165.727 360.42C168.533 355.588 171.234 349.942 169.993 344.713C169.555 342.868 168.648 341.131 167.687 339.293C167.036 338.044 166.362 336.754 165.818 335.385C163.073 328.468 164.15 321.09 165.192 313.956C166.112 307.653 166.98 301.702 165.439 296.064C164.148 291.347 161.067 287.093 156.987 284.395C155.709 283.549 155.12 283.566 154.882 283.652C154.194 283.903 154.032 285.498 154.451 287.921C155.937 296.535 154.17 305.749 149.602 313.201C149.073 314.063 147.947 314.332 147.086 313.805C146.225 313.277 145.954 312.15 146.483 311.29C150.594 304.584 152.184 296.294 150.846 288.543C150.057 283.974 150.995 281.172 153.633 280.215C155.997 279.358 158.261 280.851 159.005 281.345C163.814 284.524 167.444 289.537 168.966 295.098C170.711 301.474 169.746 308.087 168.811 314.484C167.795 321.449 166.834 328.029 169.218 334.036C169.69 335.229 170.292 336.379 170.929 337.599C171.952 339.555 173.009 341.579 173.552 343.868C175.09 350.349 172.059 356.8 168.892 362.256L168.304 363.264C165.554 367.975 162.71 372.846 162.796 377.972C162.814 378.982 162.008 379.814 160.999 379.831H160.968Z" fill="#60118C"/>
<path d="M164.802 383.239C169.791 373.756 169.619 361.748 164.362 352.41C161.389 347.131 156.948 342.715 154.53 337.162C152.787 333.16 152.181 328.668 152.803 324.347C153.107 322.227 153.701 320.126 153.619 317.986C153.537 315.845 152.596 313.56 150.663 312.637C148.274 311.498 145.421 312.841 143.445 314.601C138.85 318.693 136.635 325.016 136.627 331.17C136.619 337.322 138.624 343.331 141.371 348.837C143.348 352.801 145.79 356.873 145.475 361.292C145.186 365.344 142.63 368.811 140.776 372.427C138.923 376.042 137.821 380.706 140.248 383.964" fill="#00D770"/>
<path d="M140.773 372.424C138.924 376.04 137.819 380.705 140.248 383.965L144.598 383.835C142.29 380.583 143.387 375.992 145.212 372.424C147.067 368.809 149.626 365.339 149.916 361.29C150.23 356.874 147.785 352.8 145.809 348.837C143.064 343.333 141.055 337.321 141.063 331.173C141.071 325.016 143.291 318.689 147.883 314.597C148.738 313.839 149.755 313.153 150.828 312.725C150.771 312.693 150.714 312.66 150.659 312.637C148.277 311.499 145.421 312.838 143.444 314.597C138.853 318.689 136.633 325.016 136.625 331.173C136.618 337.321 138.626 343.333 141.37 348.837C143.347 352.8 145.791 356.874 145.477 361.29C145.187 365.339 142.628 368.809 140.773 372.424Z" fill="#FFFEFF"/>
<path d="M140.25 385.791C139.693 385.792 139.142 385.539 138.782 385.055C136.322 381.753 136.455 376.847 139.149 371.592C139.595 370.721 140.081 369.86 140.549 369.027C142.045 366.371 143.458 363.863 143.651 361.161C143.891 357.793 142.237 354.558 140.485 351.131C140.232 350.636 139.979 350.143 139.734 349.652C136.406 342.98 134.791 336.933 134.799 331.167C134.807 323.969 137.516 317.432 142.229 313.235C145.273 310.525 148.72 309.685 151.451 310.988C154.252 312.324 155.352 315.443 155.448 317.915C155.513 319.617 155.216 321.223 154.927 322.775C154.815 323.385 154.701 323.996 154.613 324.608C154.045 328.566 154.61 332.765 156.207 336.432C157.519 339.447 159.468 342.11 161.533 344.931C163.061 347.02 164.642 349.18 165.955 351.512C171.484 361.331 171.667 374.118 166.421 384.092C165.951 384.985 164.845 385.327 163.951 384.858C163.056 384.387 162.714 383.283 163.183 382.387C167.866 373.485 167.703 362.071 162.768 353.306C161.563 351.165 160.114 349.186 158.582 347.091C156.49 344.234 154.328 341.279 152.853 337.893C150.962 333.55 150.318 328.775 150.993 324.087C151.088 323.427 151.209 322.767 151.332 322.109C151.594 320.691 151.841 319.352 151.791 318.056C151.741 316.715 151.207 314.925 149.875 314.288C148.276 313.524 146.067 314.717 144.662 315.968C140.783 319.42 138.464 325.105 138.456 331.172C138.45 336.356 139.939 341.866 143.008 348.019C143.248 348.501 143.495 348.982 143.742 349.466C145.645 353.188 147.613 357.036 147.299 361.422C147.048 364.943 145.364 367.931 143.737 370.821C143.265 371.661 142.818 372.454 142.404 373.261C141.443 375.138 139.449 379.829 141.716 382.871C142.318 383.68 142.151 384.825 141.342 385.429C141.014 385.674 140.631 385.791 140.25 385.791Z" fill="#60118C"/>
<path d="M149.813 425.62H157.137C164.327 425.62 170.229 419.935 170.498 412.749L171.488 386.284C171.566 384.189 169.889 382.448 167.792 382.448H139.157C137.061 382.448 135.383 384.189 135.461 386.284L136.452 412.749C136.721 419.935 142.623 425.62 149.813 425.62Z" fill="#739FF8"/>
<path d="M157.137 427.449H149.812C141.601 427.449 134.929 421.02 134.622 412.816L133.634 386.351C133.578 384.838 134.123 383.402 135.175 382.312C136.227 381.219 137.642 380.618 139.157 380.618H167.792C169.308 380.618 170.721 381.219 171.773 382.312C172.824 383.402 173.372 384.838 173.314 386.352L172.327 412.816C172.02 421.02 165.347 427.449 157.137 427.449ZM139.157 384.276C138.645 384.276 138.166 384.478 137.81 384.848C137.454 385.217 137.269 385.702 137.289 386.214L138.277 412.681C138.511 418.912 143.577 423.792 149.812 423.792H157.137C163.371 423.792 168.438 418.912 168.673 412.681L169.661 386.215C169.68 385.702 169.493 385.217 169.138 384.848C168.783 384.478 168.305 384.276 167.792 384.276H139.157Z" fill="#60118C"/>
<path d="M171.255 394.363L135.695 392.535L171.255 390.706V394.363Z" fill="#60118C"/>
<path d="M150.016 346.492C152.224 348.804 154.458 351.144 156.12 353.98C156.943 355.396 157.609 356.926 158.011 358.559C158.416 360.183 158.534 361.939 158.258 363.639C157.717 367.045 156.067 369.998 155.166 372.865C154.725 374.286 154.459 375.744 154.496 377.108C154.53 378.475 154.903 379.7 155.614 380.597C156.243 381.388 156.111 382.542 155.318 383.171C154.525 383.801 153.372 383.668 152.743 382.874C152.703 382.825 152.666 382.774 152.633 382.721L152.596 382.664C151.478 380.906 151.161 378.842 151.297 377.024C151.43 375.184 151.936 373.492 152.593 371.914C153.938 368.8 155.725 366.198 156.464 363.282C157.23 360.41 156.62 357.232 155.309 354.403C153.989 351.551 151.997 349 150.016 346.492Z" fill="#60118C"/>
<path d="M166.094 191.968L163.576 191.815C163.403 191.804 163.269 191.653 163.28 191.48L164.896 165.101C164.906 164.928 165.056 164.795 165.229 164.805L167.749 164.959C167.922 164.97 168.056 165.121 168.045 165.294L166.428 191.673C166.418 191.846 166.267 191.979 166.094 191.968Z" fill="#EDB0FC"/>
<path d="M271.751 236.032C270.349 237.544 269.894 239.862 270.644 241.793C271.428 243.807 273.29 245.054 275.429 245.191C276.558 245.263 277.726 244.974 278.675 244.355C279.548 243.785 278.734 242.377 277.854 242.951C276.277 243.98 274.051 243.724 272.78 242.287C271.549 240.895 271.649 238.531 272.901 237.182C273.611 236.416 272.465 235.264 271.751 236.032Z" fill="#454545"/>
<path d="M265.236 252.468C265.236 252.468 271.274 260.519 284.692 252.468" stroke="#454545" stroke-width="1.20199" stroke-miterlimit="10"/>
<path d="M263.782 232.773C263.782 235.385 261.662 237.504 259.05 237.504C256.436 237.504 254.318 235.385 254.318 232.773C254.318 230.159 256.436 228.041 259.05 228.041C261.662 228.041 263.782 230.159 263.782 232.773Z" fill="#161616"/>
<path d="M266.298 223.14C261.884 221.136 256.907 221.153 252.513 223.21C251.719 223.581 251.515 224.726 251.929 225.434C252.406 226.249 253.356 226.391 254.154 226.017C257.401 224.497 261.387 224.465 264.655 225.948C265.454 226.311 266.405 226.177 266.88 225.365C267.288 224.668 267.101 223.504 266.298 223.14Z" fill="#A15E54"/>
<path d="M286.104 225.005C289.373 223.521 293.358 223.555 296.606 225.075C297.401 225.448 298.359 225.297 298.83 224.491C299.243 223.786 299.045 222.642 298.246 222.268C293.853 220.211 288.877 220.193 284.462 222.197C283.663 222.56 283.468 223.719 283.879 224.422C284.361 225.243 285.302 225.369 286.104 225.005Z" fill="#A15E54"/>
<path d="M293.434 231.593C293.434 234.207 291.314 236.326 288.701 236.326C286.088 236.326 283.97 234.207 283.97 231.593C283.97 228.981 286.088 226.863 288.701 226.863C291.314 226.863 293.434 228.981 293.434 231.593Z" fill="#161616"/>
<path d="M401.914 392.577V410.762C401.914 411.077 401.905 411.4 401.888 411.714C401.862 412.125 401.817 412.544 401.765 412.945H401.756C401.373 415.704 400.246 418.236 398.588 420.332C398.5 420.463 398.395 420.594 398.29 420.716C395.453 424.103 391.184 426.259 386.417 426.259C377.862 426.259 370.92 419.319 370.92 410.762V392.577C370.92 391.171 372.063 390.027 373.469 390.027H399.364C400.77 390.027 401.914 391.171 401.914 392.577Z" fill="#F2D237"/>
<path d="M401.914 392.577V410.762C401.914 411.077 401.905 411.4 401.888 411.714C401.862 412.125 401.817 412.544 401.765 412.945H401.756C401.373 415.704 400.246 418.236 398.588 420.332C398.5 420.463 398.395 420.594 398.29 420.716C395.453 424.103 391.184 426.259 386.417 426.259C377.862 426.259 370.92 419.319 370.92 410.762V392.577C370.92 391.171 372.063 390.027 373.469 390.027H399.364C400.77 390.027 401.914 391.171 401.914 392.577Z" stroke="#60118C" stroke-width="2.168" stroke-miterlimit="10"/>
<path d="M414.871 403.313V405.864C414.871 409.538 412.871 412.926 409.641 414.69L402.437 418.793C401.214 419.492 399.889 419.779 398.587 419.691C400.246 417.597 401.373 415.065 401.756 412.306H401.765C401.817 411.905 401.862 411.485 401.886 411.074L406.235 408.595C407.275 408.028 407.885 406.989 407.885 405.864V403.313C407.885 401.611 406.498 400.223 404.796 400.223H401.914V393.238H404.796C410.357 393.238 414.871 397.752 414.871 403.313Z" fill="#F2D237"/>
<path d="M414.871 403.313V405.864C414.871 409.538 412.871 412.926 409.641 414.69L402.437 418.793C401.214 419.492 399.889 419.779 398.587 419.691C400.246 417.597 401.373 415.065 401.756 412.306H401.765C401.817 411.905 401.862 411.485 401.886 411.074L406.235 408.595C407.275 408.028 407.885 406.989 407.885 405.864V403.313C407.885 401.611 406.498 400.223 404.796 400.223H401.914V393.238H404.796C410.357 393.238 414.871 397.752 414.871 403.313Z" stroke="#60118C" stroke-width="1.084" stroke-miterlimit="10"/>
<path d="M389.968 384.097C390.08 383.749 390.058 383.378 390.065 383.015C390.068 382.652 390.054 382.287 390.039 381.922C390.009 381.194 389.96 380.465 389.905 379.738L389.739 377.554L389.694 377.008L389.671 376.736L389.635 376.493C389.584 376.174 389.494 375.865 389.354 375.581C388.817 374.429 387.632 373.669 386.437 373.664L386.215 373.665L385.943 373.677L385.395 373.7L384.3 373.75L382.107 373.848L373.338 374.16L372.242 374.199L371.695 374.219C371.513 374.225 371.269 374.212 371.059 374.207C370.187 374.164 369.313 373.987 368.492 373.665C366.858 373.006 365.423 371.817 364.515 370.275C364.058 369.506 363.726 368.662 363.535 367.782C363.341 366.9 363.319 365.992 363.418 365.094C363.609 363.285 364.486 361.573 365.759 360.272C367.045 358.976 368.777 358.104 370.612 357.876C370.84 357.837 371.069 357.837 371.299 357.82L371.635 357.802L371.91 357.799L373.007 357.785L375.197 357.757L383.966 357.681L392.734 357.654L401.503 357.678L403.695 357.695L404.243 357.698L404.516 357.701C404.608 357.702 404.707 357.703 404.759 357.697C404.884 357.69 405.011 357.692 405.135 357.681C405.259 357.66 405.383 357.644 405.508 357.629C406.491 357.439 407.396 356.861 408.009 356.049C408.622 355.239 408.913 354.201 408.818 353.168C408.728 352.143 408.231 351.16 407.454 350.453C407.066 350.101 406.613 349.819 406.122 349.63C406.002 349.575 405.876 349.539 405.749 349.507L405.558 349.45L405.362 349.417C405.232 349.392 405.102 349.365 404.968 349.362C404.824 349.356 404.73 349.335 404.525 349.334L400.14 349.223C397.217 349.141 394.294 349.088 391.372 348.984L386.988 348.829L384.796 348.752L384.522 348.742L384.182 348.716C383.953 348.707 383.728 348.649 383.504 348.608C383.061 348.495 382.631 348.332 382.239 348.104C381.455 347.646 380.811 346.98 380.397 346.193C379.983 345.41 379.79 344.511 379.864 343.649C379.92 342.781 380.241 341.945 380.741 341.257C381 340.92 381.294 340.612 381.629 340.357C381.968 340.109 382.331 339.898 382.72 339.751C383.112 339.61 383.513 339.498 383.924 339.474C384.125 339.447 384.334 339.463 384.532 339.461L385.079 339.491C385.461 339.513 385.769 339.527 386.106 339.485C386.432 339.432 386.765 339.357 387.073 339.214C387.695 338.949 388.258 338.5 388.656 337.918C388.861 337.631 389.022 337.31 389.132 336.969C389.26 336.632 389.312 336.27 389.344 335.905C389.402 336.632 389.274 337.403 388.911 338.071C388.565 338.748 388.011 339.33 387.335 339.728C386.999 339.936 386.622 340.066 386.238 340.171C385.855 340.265 385.429 340.293 385.079 340.309L384.532 340.34C384.366 340.362 384.206 340.363 384.048 340.404C383.73 340.457 383.431 340.581 383.147 340.717C382.864 340.862 382.613 341.054 382.382 341.261C382.16 341.48 381.963 341.718 381.801 341.979C381.49 342.506 381.323 343.106 381.341 343.701C381.351 344.898 382.095 345.993 383.118 346.45C383.372 346.562 383.636 346.642 383.906 346.691C384.043 346.7 384.176 346.733 384.315 346.724L384.522 346.725L384.796 346.716L386.988 346.638L391.372 346.483C394.294 346.379 397.217 346.326 400.14 346.245L404.525 346.134C404.684 346.124 404.954 346.134 405.175 346.142C405.408 346.144 405.638 346.178 405.869 346.211L406.215 346.262L406.556 346.342C406.784 346.394 407.009 346.453 407.228 346.537C408.113 346.839 408.942 347.308 409.659 347.911C411.093 349.113 412.083 350.878 412.301 352.769C412.536 354.64 412.051 356.619 410.939 358.171C409.843 359.733 408.135 360.857 406.251 361.254L405.54 361.368C405.302 361.394 405.063 361.401 404.823 361.414C404.692 361.423 404.607 361.422 404.516 361.423L404.243 361.425L403.695 361.429L401.503 361.446L392.734 361.47L383.966 361.444L375.197 361.367L373.007 361.34L371.91 361.324L371.635 361.321L371.425 361.329C371.291 361.338 371.153 361.325 371.02 361.348C369.949 361.458 368.91 361.918 368.106 362.667C367.316 363.424 366.742 364.431 366.575 365.532C366.487 366.08 366.461 366.652 366.557 367.206C366.649 367.76 366.828 368.301 367.091 368.806C367.613 369.819 368.506 370.639 369.553 371.133C370.082 371.373 370.652 371.518 371.236 371.58C371.39 371.59 371.512 371.608 371.695 371.614L372.242 371.633L373.338 371.672L382.107 371.984L384.3 372.083L385.395 372.132L385.943 372.156L386.219 372.169L386.544 372.196C387.405 372.289 388.236 372.629 388.897 373.163C389.23 373.425 389.528 373.732 389.765 374.081C390.008 374.421 390.201 374.798 390.332 375.192C390.472 375.583 390.545 375.994 390.564 376.402L390.573 376.706L390.566 376.982L390.553 377.53C390.533 378.264 390.512 378.997 390.478 379.731C390.442 380.463 390.397 381.196 390.336 381.929C390.304 382.295 390.271 382.662 390.222 383.026C390.163 383.387 390.128 383.764 389.968 384.097Z" fill="#FFFEFF" fill-opacity="0.7"/>
</svg>
